<svg width="14" height="14" viewBox="0 0 14 14" fill="none" xmlns="http://www.w3.org/2000/svg">
<g clip-path="url(#clip0_15111_313)">
<path d="M9.7904 1.44293L10.5108 0.270433C10.6788 -0.0049006 11.0381 -0.0900672 11.3129 0.0790994C11.5877 0.247683 11.6734 0.606433 11.5042 0.881183L10.7838 2.05368C10.6742 2.23335 10.4822 2.33193 10.2862 2.33193C10.1818 2.33193 10.0768 2.30393 9.98173 2.2456C9.70698 2.07702 9.62123 1.71768 9.7904 1.44293ZM3.1649 2.0531C3.27457 2.23277 3.46707 2.33193 3.66307 2.33193C3.7669 2.33193 3.8719 2.30393 3.96698 2.24618C4.24173 2.0776 4.32807 1.71885 4.15948 1.4441L3.44023 0.271016C3.27165 -0.00373391 2.91232 -0.0894839 2.63815 0.0785161C2.3634 0.247099 2.27707 0.605849 2.44565 0.880599L3.1649 2.0531ZM1.88973 3.3411L0.8409 2.83885C0.551567 2.69827 0.200983 2.82193 0.0633167 3.11302C-0.0761 3.40352 0.0469834 3.75177 0.337483 3.8906L1.38632 4.39285C1.4674 4.43193 1.55315 4.4506 1.63773 4.4506C1.85532 4.4506 2.06415 4.32868 2.1639 4.11927C2.30332 3.82877 2.18023 3.47993 1.88973 3.3411ZM6.91982 2.33368C3.70332 2.38677 1.15415 5.87277 2.90065 9.23043C3.16607 9.74027 3.55982 10.1673 3.98273 10.5563C4.14315 10.7039 4.2674 10.8865 4.37357 11.0825H6.41582V8.05852C5.73857 7.81702 5.24915 7.17535 5.24915 6.41585C5.24915 6.09327 5.5099 5.83252 5.83248 5.83252C6.15507 5.83252 6.41582 6.09327 6.41582 6.41585C6.41582 6.73843 6.67715 6.99918 6.99915 6.99918C7.32115 6.99918 7.58248 6.73785 7.58248 6.41585C7.58248 6.09385 7.84323 5.83252 8.16582 5.83252C8.4884 5.83252 8.74915 6.09327 8.74915 6.41585C8.74915 7.17535 8.25973 7.81702 7.58248 8.05852V11.0825H9.60548C9.73848 10.8544 9.90998 10.6392 10.1346 10.4519C10.519 10.1311 10.8806 9.77352 11.1029 9.32493C12.1161 7.27568 11.7142 5.09052 10.2711 3.67185C9.37215 2.78752 8.18157 2.31443 6.91982 2.33368ZM4.66115 12.4119C4.61448 13.2671 5.25498 13.9998 6.11132 13.9998H7.87357C8.67915 13.9998 9.3319 13.347 9.3319 12.5414V12.2498H4.65473C4.65473 12.3046 4.66465 12.3559 4.66115 12.4119ZM13.9484 3.09143C13.8154 2.79802 13.4706 2.6656 13.1772 2.79977L12.0502 3.30843C11.7562 3.44085 11.6256 3.78618 11.7586 4.0796C11.856 4.29543 12.0677 4.42318 12.2906 4.42318C12.3705 4.42318 12.4522 4.40685 12.5297 4.37127L13.6567 3.8626C13.9507 3.73018 14.0814 3.38485 13.9484 3.09143Z" fill="#3C76F1"/>
</g>
<defs>
<clipPath id="clip0_15111_313">
<rect width="14" height="14" fill="white"/>
</clipPath>
</defs>
</svg>
