<svg width="14" height="14" viewBox="0 0 14 14" fill="none" xmlns="http://www.w3.org/2000/svg">
<g clip-path="url(#clip0_20278_3996)">
<path d="M9.91732 0H4.08398V3.5H9.91732V0Z" fill="currentColor"/>
<path d="M7.00065 9.33333C7.64498 9.33333 8.16732 8.811 8.16732 8.16667C8.16732 7.52233 7.64498 7 7.00065 7C6.35632 7 5.83398 7.52233 5.83398 8.16667C5.83398 8.811 6.35632 9.33333 7.00065 9.33333Z" fill="currentColor"/>
<path d="M11.0833 0V4.66667H2.91667V0H1.75C1.28587 0 0.840752 0.184374 0.512563 0.512563C0.184374 0.840752 0 1.28587 0 1.75L0 14H14V2.91667L11.0833 0ZM7 10.5C6.53851 10.5 6.08738 10.3632 5.70367 10.1068C5.31995 9.85037 5.02088 9.48596 4.84428 9.05959C4.66768 8.63323 4.62147 8.16408 4.7115 7.71146C4.80153 7.25883 5.02376 6.84307 5.35008 6.51675C5.67641 6.19043 6.09217 5.9682 6.54479 5.87817C6.99741 5.78814 7.46657 5.83434 7.89293 6.01095C8.31929 6.18755 8.68371 6.48662 8.94009 6.87034C9.19649 7.25405 9.33333 7.70518 9.33333 8.16667C9.33333 8.78551 9.0875 9.379 8.64992 9.81658C8.21233 10.2542 7.61884 10.5 7 10.5Z" fill="currentColor"/>
</g>
<defs>
<clipPath id="clip0_20278_3996">
<rect width="14" height="14" fill="white"/>
</clipPath>
</defs>
</svg>
