<svg width="14" height="14" viewBox="0 0 14 14" fill="none" xmlns="http://www.w3.org/2000/svg">
<g clip-path="url(#clip0_20278_3968)">
<path d="M14 4.08333V5.25C14 5.572 13.7387 5.83333 13.4167 5.83333C13.0947 5.83333 12.8333 5.572 12.8333 5.25V4.08333C12.8333 3.43992 12.3101 2.91667 11.6667 2.91667H10.4831L11.2122 3.67908C11.4357 3.91125 11.4287 4.2805 11.1959 4.50392C11.0828 4.613 10.9375 4.66667 10.7917 4.66667C10.6388 4.66667 10.486 4.60658 10.3711 4.48758L9.08075 3.14533C8.63683 2.70142 8.63683 1.96525 9.08833 1.51317L10.3711 0.179083C10.5945 -0.0530833 10.9643 -0.0600833 11.1959 0.16275C11.4281 0.386167 11.4357 0.755417 11.2122 0.987583L10.479 1.75H11.6667C12.9535 1.75 14 2.7965 14 4.08333ZM3.62892 9.51242C3.4055 9.28025 3.03625 9.27383 2.80408 9.49667C2.57192 9.72008 2.56433 10.0893 2.78775 10.3215L3.51692 11.0839H2.33333C1.68992 11.0839 1.16667 10.5607 1.16667 9.91725V8.75058C1.16667 8.428 0.905333 8.16725 0.583333 8.16725C0.261333 8.16725 0 8.428 0 8.75058V9.91725C0 11.2041 1.0465 12.2506 2.33333 12.2506H3.52042L2.78775 13.013C2.56433 13.2452 2.57133 13.6144 2.80408 13.8378C2.91725 13.9469 3.0625 14.0006 3.20833 14.0006C3.36117 14.0006 3.514 13.9405 3.62892 13.8215L4.91167 12.4868C5.36258 12.0353 5.36258 11.2992 4.91925 10.8547L3.62892 9.51242ZM7 4.66667C7 5.95525 5.95525 7 4.66667 7H2.33333C1.04475 7 0 5.95525 0 4.66667V2.33333C0 1.04475 1.04475 0 2.33333 0H4.66667C5.95525 0 7 1.04475 7 2.33333V4.66667ZM5.54167 2.10933C5.54167 1.911 5.38067 1.75 5.18233 1.75H3.86575V1.526C3.86575 1.32767 3.70475 1.16667 3.50642 1.16667H3.49417C3.29583 1.16667 3.13483 1.32767 3.13483 1.526V1.75H1.81767C1.61933 1.75 1.45833 1.911 1.45833 2.10933V2.12158C1.45833 2.31992 1.61933 2.48092 1.81767 2.48092H4.263C4.19825 3.04267 3.98067 3.73567 3.50292 4.27233C3.34192 4.0915 3.20717 3.89433 3.09925 3.689C3.03742 3.57117 2.91375 3.49942 2.78133 3.49942C2.51067 3.49942 2.33275 3.78642 2.45875 4.02617C2.59 4.277 2.751 4.51792 2.94292 4.73783C2.6285 4.92917 2.24933 5.06392 1.78967 5.10825C1.603 5.12633 1.45833 5.27917 1.45833 5.46642V5.47867C1.45833 5.69158 1.64267 5.85667 1.85442 5.83683C2.52292 5.77442 3.06717 5.55392 3.50642 5.24067C3.94333 5.55158 4.48117 5.77325 5.14442 5.83683C5.35675 5.85725 5.54108 5.69217 5.54108 5.47925V5.467C5.54108 5.28267 5.40108 5.12692 5.21733 5.10942C4.75533 5.06567 4.37617 4.92858 4.06 4.73667C4.6375 4.07458 4.92625 3.22525 4.99742 2.4815H5.18175C5.38008 2.4815 5.54108 2.3205 5.54108 2.12217V2.10992L5.54167 2.10933ZM14 9.33333V11.6667C14 12.9552 12.9552 14 11.6667 14H9.33333C8.04475 14 7 12.9552 7 11.6667V9.33333C7 8.04475 8.04475 7 9.33333 7H11.6667C12.9552 7 14 8.04475 14 9.33333ZM12.1357 12.334L11.3406 8.86433C11.2782 8.59367 11.1055 8.3475 10.8494 8.24017C10.3133 8.01558 9.76733 8.33058 9.65008 8.83575L8.82583 12.3317C8.76517 12.5877 8.96 12.8333 9.22308 12.8333C9.41208 12.8333 9.57658 12.7032 9.62033 12.5189L9.78017 11.8417H11.1854L11.34 12.5166C11.3826 12.7021 11.5477 12.8333 11.7378 12.8333H11.739C12.0009 12.8333 12.1952 12.5895 12.1368 12.334H12.1357ZM10.4918 8.98333C10.4697 8.98333 10.4504 8.9985 10.4457 9.02008L9.97267 11.025H10.9976L10.5385 9.02008C10.5332 8.9985 10.514 8.98333 10.4918 8.98333Z" fill="currentColor"/>
</g>
<defs>
<clipPath id="clip0_20278_3968">
<rect width="14" height="14" fill="white"/>
</clipPath>
</defs>
</svg>
