<svg width="74" height="57" viewBox="0 0 74 57" fill="none" xmlns="http://www.w3.org/2000/svg">
<path d="M40.25 52.5C45.0745 52.5 49 48.5745 49 43.75V12.25C49 7.42554 45.0745 3.5 40.25 3.5H15.75C10.9255 3.5 7 7.42554 7 12.25V43.75C7 48.5745 10.9255 52.5 15.75 52.5H40.25ZM10.5 12.25C10.5 9.35498 12.855 7 15.75 7H40.25C43.145 7 45.5 9.35498 45.5 12.25V43.75C45.5 46.645 43.145 49 40.25 49H15.75C12.855 49 10.5 46.645 10.5 43.75V12.25Z" fill="#A7A7A7"/>
<path d="M24.5 29.75H38.5C39.4673 29.75 40.25 28.9664 40.25 28C40.25 27.0336 39.4673 26.25 38.5 26.25H24.5C23.5327 26.25 22.75 27.0336 22.75 28C22.75 28.9664 23.5327 29.75 24.5 29.75Z" fill="#A7A7A7"/>
<path d="M24.5 21H38.5C39.4673 21 40.25 20.2164 40.25 19.25C40.25 18.2836 39.4673 17.5 38.5 17.5H24.5C23.5327 17.5 22.75 18.2836 22.75 19.25C22.75 20.2164 23.5327 21 24.5 21Z" fill="#A7A7A7"/>
<path d="M24.5 38.5H38.5C39.4673 38.5 40.25 37.7164 40.25 36.75C40.25 35.7836 39.4673 35 38.5 35H24.5C23.5327 35 22.75 35.7836 22.75 36.75C22.75 37.7164 23.5327 38.5 24.5 38.5Z" fill="#A7A7A7"/>
<path d="M17.5339 21C18.5012 21 19.2839 20.2164 19.2839 19.25C19.2839 18.2836 18.5012 17.5 17.5339 17.5H17.5168C16.5513 17.5 15.7754 18.2836 15.7754 19.25C15.7754 20.2164 16.5684 21 17.5339 21Z" fill="#A7A7A7"/>
<path d="M17.5339 29.75C18.5012 29.75 19.2839 28.9664 19.2839 28C19.2839 27.0336 18.5012 26.25 17.5339 26.25H17.5168C16.5513 26.25 15.7754 27.0336 15.7754 28C15.7754 28.9664 16.5684 29.75 17.5339 29.75Z" fill="#A7A7A7"/>
<path d="M17.5339 38.5C18.5012 38.5 19.2839 37.7164 19.2839 36.75C19.2839 35.7836 18.5012 35 17.5339 35H17.5168C16.5513 35 15.7754 35.7836 15.7754 36.75C15.7754 37.7164 16.5684 38.5 17.5339 38.5Z" fill="#A7A7A7"/>
<path d="M65.6959 49.485C66.0701 49.1107 66.0701 48.5039 65.6959 48.1297L64.0018 46.4356L65.6959 44.7414C66.0701 44.3672 66.0701 43.7604 65.6959 43.3862C65.3217 43.0119 64.7149 43.0119 64.3406 43.3862L62.6465 45.0803L60.9524 43.3862C60.5781 43.0119 59.9713 43.0119 59.5971 43.3862C59.2228 43.7604 59.2228 44.3672 59.5971 44.7414L61.2912 46.4356L59.5971 48.1297C59.2228 48.5039 59.2228 49.1107 59.5971 49.485C59.9713 49.8592 60.5781 49.8592 60.9524 49.485L62.6465 47.7908L64.3406 49.485C64.7149 49.8592 65.3217 49.8592 65.6959 49.485Z" fill="#A7A7A7"/>
<path fill-rule="evenodd" clip-rule="evenodd" d="M56.2755 39.5851C59.9189 35.9417 65.8259 35.9417 69.4693 39.5851C72.8839 42.9997 73.0983 48.4026 70.1126 52.0668C66.4538 56.5571 59.6901 56.1934 56.2755 52.7789C52.6321 49.1355 52.6321 43.2284 56.2755 39.5851ZM68.114 40.9404C65.2191 38.0455 60.5257 38.0455 57.6308 40.9404C54.7359 43.8352 54.7359 48.5287 57.6308 51.4236C60.5257 54.3184 65.2191 54.3184 68.114 51.4236C71.0089 48.5287 71.0089 43.8352 68.114 40.9404Z" fill="#A7A7A7"/>
</svg>
