<svg width="48" height="48" viewBox="0 0 48 48" fill="none" xmlns="http://www.w3.org/2000/svg">
<path d="M32 32L24 24L16 32" stroke="#BDBDBE" stroke-width="2" stroke-linecap="round" stroke-linejoin="round"/>
<path d="M24 24V42" stroke="#BDBDBE" stroke-width="2" stroke-linecap="round" stroke-linejoin="round"/>
<path d="M40.7799 36.779C42.7306 35.7155 44.2716 34.0328 45.1597 31.9962C46.0477 29.9597 46.2323 27.6855 45.6843 25.5324C45.1363 23.3793 43.8869 21.47 42.1333 20.1059C40.3796 18.7418 38.2216 18.0005 35.9999 17.999H33.4799C32.8745 15.6575 31.7462 13.4837 30.1798 11.641C28.6134 9.79829 26.6496 8.33469 24.4361 7.36021C22.2226 6.38572 19.817 5.92571 17.4002 6.01476C14.9833 6.1038 12.6181 6.73959 10.4823 7.87432C8.34649 9.00905 6.49574 10.6132 5.06916 12.5662C3.64259 14.5191 2.6773 16.7701 2.24588 19.1498C1.81446 21.5295 1.92813 23.9761 2.57835 26.3055C3.22856 28.635 4.3984 30.7867 5.99992 32.599" stroke="#BDBDBE" stroke-width="2" stroke-linecap="round" stroke-linejoin="round"/>
<path d="M32 32L24 24L16 32" stroke="#BDBDBE" stroke-width="2" stroke-linecap="round" stroke-linejoin="round"/>
</svg>
