<svg width="45" height="45" viewBox="0 0 45 45" fill="none" xmlns="http://www.w3.org/2000/svg">
<g clip-path="url(#clip0_10782_39301)">
<g clip-path="url(#clip1_10782_39301)">
<path d="M6.25 41.625C6.25 43.4812 7.76873 45 9.625 45H34.375C36.2313 45 37.75 43.4812 37.75 41.625V39.375H6.25V41.625Z" fill="url(#paint0_linear_10782_39301)"/>
<path d="M37.7498 31.5C37.7486 27.6201 37.7474 23.7401 37.7462 19.8602C39.0288 19.4185 39.7619 17.995 39.8158 16.6395C39.8697 15.2841 39.3844 13.972 38.9065 12.7025C38.4015 11.3612 37.7775 9.88887 36.4681 9.30626C35.7754 8.99805 34.9912 8.99311 34.233 8.99342C26.0104 8.99668 17.7878 8.99995 9.56522 9.00322C8.78559 9.00352 7.96991 9.0124 7.28173 9.3788C6.29894 9.90206 5.81208 11.0155 5.39557 12.0481C4.79646 13.5333 4.17635 15.0839 4.17214 16.7103C4.16872 18.0288 5.06031 19.3029 6.252 19.8614C6.25149 23.7435 6.25096 27.6255 6.25042 31.5076C4.68625 31.3353 3.93485 33.107 3.94151 34.387C3.94616 35.2787 4.22782 36.2486 4.97461 36.7359C5.55573 37.1152 6.29393 37.1276 6.98784 37.1275C17.0841 37.126 27.1804 37.1246 37.2766 37.1232C37.8078 37.1231 38.3619 37.1178 38.8351 36.8764C39.6116 36.4803 39.9641 35.5506 40.0382 34.682C40.1536 33.3266 39.4457 31.3644 37.7498 31.5ZM8.5 20.2105C9.09815 20.1257 9.72841 19.8744 10.2205 19.5249C10.5275 19.3069 10.9719 19.3069 11.2817 19.526C12.621 20.4731 14.5018 20.4742 15.8455 19.5249C16.1525 19.3069 16.5975 19.3069 16.9067 19.526C18.246 20.4731 20.1268 20.4742 21.4705 19.5249C21.777 19.3069 22.2219 19.3069 22.5317 19.526C23.8699 20.4731 25.7529 20.4742 27.0955 19.5249C27.3998 19.308 27.8458 19.3063 28.1567 19.526C29.4949 20.4731 31.3779 20.4742 32.7205 19.5249C33.0248 19.308 33.4708 19.3063 33.7817 19.526C34.2816 19.8799 34.8961 20.1173 35.5 20.2105V31.5H28.3646C27.6652 29.5259 26.0745 28.0075 24.1179 27.3563C24.8785 26.7369 25.375 25.8051 25.375 24.75C25.375 22.8889 23.8611 21.375 22 21.375C20.1389 21.375 18.625 22.8889 18.625 24.75C18.625 25.8051 19.1215 26.7369 19.8821 27.3563C17.9258 28.0075 16.3352 29.5259 15.636 31.5H8.49999C8.49999 31.5 8.49999 20.2105 8.5 20.2105Z" fill="url(#paint1_linear_10782_39301)"/>
</g>
<path d="M38.5 13C42.0899 13 45 10.0899 45 6.5C45 2.91015 42.0899 0 38.5 0C34.9101 0 32 2.91015 32 6.5C32 10.0899 34.9101 13 38.5 13Z" fill="#8D8D8D"/>
<path d="M38.5 13C42.0899 13 45 10.0899 45 6.5C45 2.91015 42.0899 0 38.5 0C34.9101 0 32 2.91015 32 6.5C32 10.0899 34.9101 13 38.5 13Z" fill="url(#paint2_linear_10782_39301)"/>
<path d="M40.761 9.60794C40.6497 9.60807 40.5394 9.5862 40.4365 9.54357C40.3336 9.50094 40.2402 9.43841 40.1616 9.35955L35.6399 4.83781C35.4818 4.67863 35.3933 4.46331 35.3937 4.23901C35.3941 4.01472 35.4834 3.79972 35.642 3.64112C35.8006 3.48252 36.0156 3.39323 36.2399 3.39282C36.4642 3.39242 36.6795 3.48091 36.8387 3.63894L41.3605 8.16068C41.479 8.27925 41.5597 8.4303 41.5924 8.59475C41.6251 8.75919 41.6083 8.92964 41.5442 9.08454C41.48 9.23945 41.3714 9.37185 41.232 9.46501C41.0926 9.55817 40.9287 9.60791 40.761 9.60794Z" fill="#EAF4F4"/>
<path d="M36.238 9.60794C36.0703 9.60791 35.9064 9.55817 35.767 9.46501C35.6276 9.37185 35.519 9.23945 35.4548 9.08454C35.3907 8.92964 35.3739 8.75919 35.4066 8.59475C35.4393 8.4303 35.52 8.27925 35.6385 8.16068L40.1603 3.63894C40.3195 3.48091 40.5348 3.39242 40.7591 3.39282C40.9834 3.39323 41.1984 3.48252 41.357 3.64112C41.5156 3.79972 41.6049 4.01472 41.6053 4.23901C41.6057 4.46331 41.5172 4.67863 41.3592 4.83781L36.8374 9.35955C36.7588 9.43841 36.6654 9.50094 36.5625 9.54357C36.4596 9.5862 36.3493 9.60807 36.238 9.60794Z" fill="#EAF4F4"/>
</g>
<defs>
<linearGradient id="paint0_linear_10782_39301" x1="22.002" y1="44.9993" x2="22.002" y2="39.3726" gradientUnits="userSpaceOnUse">
<stop stop-color="#9B9B9B"/>
<stop offset="1" stop-color="#DDDDDD"/>
</linearGradient>
<linearGradient id="paint1_linear_10782_39301" x1="21.9982" y1="37.1237" x2="21.9982" y2="8.98116" gradientUnits="userSpaceOnUse">
<stop stop-color="#9B9B9B"/>
<stop offset="1" stop-color="#DDDDDD"/>
</linearGradient>
<linearGradient id="paint2_linear_10782_39301" x1="38.5008" y1="12.9983" x2="33.3" y2="2.16667" gradientUnits="userSpaceOnUse">
<stop stop-color="#6B6B6B"/>
<stop offset="1" stop-color="#D9D9D9"/>
</linearGradient>
<clipPath id="clip0_10782_39301">
<rect width="45" height="45" fill="white"/>
</clipPath>
<clipPath id="clip1_10782_39301">
<rect width="36" height="36" fill="white" transform="translate(4 9)"/>
</clipPath>
</defs>
</svg>
