<svg width="64" height="64" viewBox="0 0 64 64" fill="none" xmlns="http://www.w3.org/2000/svg">
<path d="M21.1657 57.2143H10.0236C8.897 57.2131 7.81684 56.7621 7.02018 55.9603C6.22352 55.1585 5.77544 54.0714 5.77427 52.9375V15.0625C5.77544 13.9286 6.22352 12.8415 7.02018 12.0397C7.81684 11.2379 8.897 10.7869 10.0236 10.7857H27.9561V15.7601C27.9576 17.1804 28.5189 18.5421 29.5168 19.5464C30.5147 20.5508 31.8677 21.1157 33.2789 21.1172H38.2257V35.491C38.2257 35.7278 38.3192 35.9549 38.4856 36.1223C38.6519 36.2898 38.8776 36.3839 39.1129 36.3839C39.3481 36.3839 39.5738 36.2898 39.7402 36.1223C39.9065 35.9549 40 35.7278 40 35.491V20.2235C40 20.1062 39.9771 19.9901 39.9325 19.8818C39.8879 19.7735 39.8225 19.6751 39.7401 19.5922L29.4788 9.27335C29.3092 9.10198 29.08 9.00391 28.8398 9H10.0236C8.42662 9.0018 6.89552 9.6411 5.76626 10.7776C4.63699 11.9142 4.00178 13.4552 4 15.0625V52.9375C4.00178 54.5448 4.63699 56.0858 5.76626 57.2224C6.89552 58.3589 8.42662 58.9982 10.0236 59H21.1657C21.3983 58.9959 21.6201 58.9001 21.7831 58.7331C21.9462 58.5661 22.0376 58.3413 22.0376 58.1071C22.0376 57.873 21.9462 57.6482 21.7831 57.4812C21.6201 57.3142 21.3983 57.2183 21.1657 57.2143ZM29.7304 12.0506L36.971 19.3315H33.2789C32.3381 19.3306 31.436 18.954 30.7708 18.2844C30.1055 17.6148 29.7313 16.707 29.7304 15.7601V12.0506Z" fill="#A7A7A7"/>
<path d="M16.8696 25H35.1304C35.3611 25 35.5822 24.8946 35.7453 24.7071C35.9084 24.5196 36 24.2652 36 24C36 23.7348 35.9084 23.4804 35.7453 23.2929C35.5822 23.1054 35.3611 23 35.1304 23H16.8696C16.6389 23 16.4178 23.1054 16.2547 23.2929C16.0916 23.4804 16 23.7348 16 24C16 24.2652 16.0916 24.5196 16.2547 24.7071C16.4178 24.8946 16.6389 25 16.8696 25Z" fill="#A7A7A7"/>
<path d="M36 32C36.0001 31.8687 35.9779 31.7386 35.9348 31.6172C35.8916 31.4959 35.8284 31.3856 35.7486 31.2927C35.6689 31.1999 35.5742 31.1262 35.47 31.076C35.3657 31.0257 35.2541 30.9999 35.1413 31H16.8587C16.631 31 16.4126 31.1054 16.2515 31.2929C16.0905 31.4804 16 31.7348 16 32C16 32.2652 16.0905 32.5196 16.2515 32.7071C16.4126 32.8946 16.631 33 16.8587 33H35.1413C35.2541 33.0001 35.3657 32.9743 35.47 32.924C35.5742 32.8738 35.6689 32.8001 35.7486 32.7073C35.8284 32.6144 35.8916 32.5041 35.9348 32.3828C35.9779 32.2614 36.0001 32.1313 36 32Z" fill="#A7A7A7"/>
<path d="M21.1477 39H16.8523C16.6262 39 16.4095 39.1054 16.2496 39.2929C16.0898 39.4804 16 39.7348 16 40C16 40.2652 16.0898 40.5196 16.2496 40.7071C16.4095 40.8946 16.6262 41 16.8523 41H21.1477C21.3738 41 21.5905 40.8946 21.7504 40.7071C21.9102 40.5196 22 40.2652 22 40C22 39.7348 21.9102 39.4804 21.7504 39.2929C21.5905 39.1054 21.3738 39 21.1477 39Z" fill="#A7A7A7"/>
<path d="M21.1429 47H16.8571C16.6298 47 16.4118 47.1054 16.2511 47.2929C16.0903 47.4804 16 47.7348 16 48C16 48.2652 16.0903 48.5196 16.2511 48.7071C16.4118 48.8946 16.6298 49 16.8571 49H21.1429C21.3702 49 21.5882 48.8946 21.7489 48.7071C21.9097 48.5196 22 48.2652 22 48C22 47.7348 21.9097 47.4804 21.7489 47.2929C21.5882 47.1054 21.3702 47 21.1429 47Z" fill="#A7A7A7"/>
<path d="M51.3529 38H26.6471C25.9453 38.0008 25.2724 38.2855 24.7762 38.7917C24.2799 39.2979 24.0008 39.9843 24 40.7002V56.2998C24.0008 57.0157 24.2799 57.7021 24.7762 58.2083C25.2724 58.7145 25.9453 58.9992 26.6471 59H51.3529C52.0548 58.9992 52.7276 58.7145 53.2238 58.2083C53.7201 57.7021 53.9992 57.0157 54 56.2998V40.7002C53.9992 39.9843 53.7201 39.2979 53.2238 38.7917C52.7276 38.2855 52.0548 38.0008 51.3529 38ZM52.2353 56.2998C52.2351 56.5385 52.1421 56.7673 51.9767 56.9361C51.8112 57.1049 51.5869 57.1997 51.3529 57.1999H26.6471C26.4131 57.1997 26.1888 57.1049 26.0233 56.9361C25.8579 56.7673 25.7649 56.5385 25.7647 56.2998V44.8998H52.2353V56.2998ZM52.2353 43.0997H25.7647V40.7002C25.7649 40.4615 25.8579 40.2327 26.0233 40.0639C26.1888 39.8951 26.4131 39.8003 26.6471 39.8001H51.3529C51.5869 39.8003 51.8112 39.8951 51.9767 40.0639C52.1421 40.2327 52.2351 40.4615 52.2353 40.7002V43.0997Z" fill="#A7A7A7"/>
<path d="M27.9 55H35.1C35.2182 55.0001 35.3353 54.9786 35.4445 54.9367C35.5537 54.8948 35.653 54.8335 35.7365 54.7561C35.8201 54.6787 35.8864 54.5868 35.9316 54.4856C35.9768 54.3845 36.0001 54.2761 36 54.1667V50.8333C36.0001 50.7239 35.9768 50.6155 35.9316 50.5144C35.8864 50.4132 35.8201 50.3213 35.7365 50.2439C35.653 50.1665 35.5537 50.1052 35.4445 50.0633C35.3353 50.0214 35.2182 49.9999 35.1 50H27.9C27.7818 49.9999 27.6647 50.0215 27.5555 50.0633C27.4463 50.1052 27.347 50.1665 27.2635 50.2439C27.1799 50.3213 27.1136 50.4132 27.0684 50.5144C27.0232 50.6155 26.9999 50.7239 27 50.8333V54.1667C26.9999 54.2761 27.0232 54.3845 27.0684 54.4856C27.1136 54.5868 27.1799 54.6787 27.2635 54.7561C27.347 54.8335 27.4463 54.8948 27.5555 54.9367C27.6647 54.9785 27.7818 55.0001 27.9 55ZM28.8 51.6667H34.2V53.3333H28.8V51.6667Z" fill="#A7A7A7"/>
<path d="M13.7486 22.2746C13.6689 22.1876 13.5743 22.1185 13.4702 22.0714C13.3661 22.0243 13.2546 22 13.1419 22C13.0292 22 12.9176 22.0243 12.8135 22.0714C12.7094 22.1185 12.6148 22.1876 12.5352 22.2746L10.2817 24.7372L9.45793 23.8373C9.29641 23.6647 9.07913 23.5687 8.85322 23.5701C8.62732 23.5715 8.41103 23.6701 8.2513 23.8446C8.09156 24.0191 8.00127 24.2554 8.00001 24.5022C7.99876 24.749 8.08664 24.9863 8.24459 25.1627L9.67508 26.7254C9.75474 26.8124 9.84933 26.8815 9.95343 26.9286C10.0575 26.9757 10.1691 27 10.2818 27C10.3945 27 10.5061 26.9757 10.6102 26.9286C10.7143 26.8815 10.8089 26.8124 10.8885 26.7254L13.7486 23.6001C13.8283 23.5131 13.8916 23.4098 13.9347 23.296C13.9778 23.1823 14 23.0604 14 22.9374C14 22.8143 13.9778 22.6924 13.9347 22.5787C13.8915 22.465 13.8283 22.3616 13.7486 22.2746Z" fill="#A7A7A7"/>
<path d="M13.7486 30.2746C13.6689 30.1876 13.5743 30.1185 13.4702 30.0714C13.3661 30.0243 13.2546 30 13.1419 30C13.0292 30 12.9176 30.0243 12.8135 30.0714C12.7094 30.1185 12.6148 30.1876 12.5352 30.2746L10.2817 32.7372L9.45793 31.8373C9.29641 31.6647 9.07913 31.5687 8.85322 31.5701C8.62732 31.5715 8.41103 31.6701 8.2513 31.8446C8.09156 32.0191 8.00127 32.2554 8.00001 32.5022C7.99876 32.749 8.08664 32.9863 8.24459 33.1627L9.67508 34.7254C9.75474 34.8124 9.84933 34.8815 9.95343 34.9286C10.0575 34.9757 10.1691 35 10.2818 35C10.3945 35 10.5061 34.9757 10.6102 34.9286C10.7143 34.8815 10.8089 34.8124 10.8885 34.7254L13.7486 31.6001C13.8283 31.5131 13.8916 31.4098 13.9347 31.296C13.9778 31.1823 14 31.0604 14 30.9374C14 30.8143 13.9778 30.6924 13.9347 30.5787C13.8915 30.465 13.8283 30.3616 13.7486 30.2746Z" fill="#A7A7A7"/>
<path d="M13.7486 38.2746C13.6689 38.1876 13.5743 38.1185 13.4702 38.0714C13.3661 38.0243 13.2546 38 13.1419 38C13.0292 38 12.9176 38.0243 12.8135 38.0714C12.7094 38.1185 12.6148 38.1876 12.5352 38.2746L10.2817 40.7372L9.45793 39.8373C9.29641 39.6647 9.07913 39.5687 8.85322 39.5701C8.62732 39.5715 8.41103 39.6701 8.2513 39.8446C8.09156 40.0191 8.00127 40.2554 8.00001 40.5022C7.99876 40.749 8.08664 40.9863 8.24459 41.1627L9.67508 42.7254C9.75474 42.8124 9.84933 42.8815 9.95343 42.9286C10.0575 42.9757 10.1691 43 10.2818 43C10.3945 43 10.5061 42.9757 10.6102 42.9286C10.7143 42.8815 10.8089 42.8124 10.8885 42.7254L13.7486 39.6001C13.8283 39.5131 13.8916 39.4098 13.9347 39.296C13.9778 39.1823 14 39.0604 14 38.9374C14 38.8143 13.9778 38.6924 13.9347 38.5787C13.8915 38.465 13.8283 38.3616 13.7486 38.2746Z" fill="#A7A7A7"/>
<path d="M12.5384 46.2706L10.284 48.7352L9.45986 47.8346C9.29839 47.6613 9.08083 47.5647 8.85452 47.5658C8.6282 47.5669 8.41145 47.6657 8.25142 47.8406C8.09139 48.0154 8.00103 48.2523 8.00001 48.4996C7.99898 48.747 8.08737 48.9847 8.24595 49.1612L9.67706 50.7251C9.75676 50.8123 9.85138 50.8814 9.95553 50.9286C10.0597 50.9757 10.1713 51 10.284 51C10.3968 51 10.5084 50.9757 10.6126 50.9286C10.7167 50.8814 10.8113 50.8123 10.891 50.7251L13.7524 47.5972C13.9117 47.4209 14.0007 47.1829 14 46.9351C13.9993 46.6873 13.9089 46.4499 13.7486 46.2747C13.5882 46.0995 13.371 46.0008 13.1443 46C12.9176 45.9992 12.6998 46.0965 12.5384 46.2706Z" fill="#A7A7A7"/>
<path d="M52.0709 19.5494C52.4451 19.1752 52.4451 18.5684 52.0709 18.1942L50.3768 16.5L52.0709 14.8059C52.4451 14.4317 52.4451 13.8249 52.0709 13.4506C51.6967 13.0764 51.0899 13.0764 50.7156 13.4506L49.0215 15.1447L47.3274 13.4506C46.9531 13.0764 46.3463 13.0764 45.9721 13.4506C45.5978 13.8249 45.5978 14.4317 45.9721 14.8059L47.6662 16.5L45.9721 18.1942C45.5978 18.5684 45.5978 19.1752 45.9721 19.5494C46.3463 19.9237 46.9531 19.9237 47.3274 19.5494L49.0215 17.8553L50.7156 19.5494C51.0899 19.9237 51.6967 19.9237 52.0709 19.5494Z" fill="#A7A7A7"/>
<path fill-rule="evenodd" clip-rule="evenodd" d="M42.6495 9.64854C46.2929 6.00518 52.1999 6.00518 55.8433 9.64854C59.2579 13.0631 59.4724 18.466 56.4866 22.1303C52.8278 26.6205 46.0641 26.2569 42.6495 22.8424C39.0062 19.199 39.0062 13.2919 42.6495 9.64854ZM54.4881 11.0038C51.5931 8.10897 46.8997 8.10897 44.0048 11.0038C41.1099 13.8987 41.1099 18.5922 44.0048 21.4871C46.8997 24.3819 51.5931 24.3819 54.4881 21.4871C57.3829 18.5922 57.3829 13.8987 54.4881 11.0038Z" fill="#A7A7A7"/>
</svg>
