<svg width="13" height="13" viewBox="0 0 13 13" fill="none" xmlns="http://www.w3.org/2000/svg">
<g clip-path="url(#clip0_18694_39348)">
<path d="M11.6475 10.7201L11.067 3.40483C11.031 2.93351 10.6322 2.56445 10.1596 2.56445H9.0129V4.26352C9.0129 4.47393 8.84258 4.64425 8.63217 4.64425C8.42201 4.64425 8.25144 4.47393 8.25144 4.26352V2.56445H4.74877V4.26352C4.74877 4.47393 4.5782 4.64425 4.36804 4.64425C4.15763 4.64425 3.98731 4.47393 3.98731 4.26352V2.56445H2.84057C2.36797 2.56445 1.96921 2.93351 1.93318 3.40382L1.35245 10.7211C1.30753 11.3072 1.51084 11.8905 1.91008 12.3214C2.30934 12.7524 2.87535 12.9999 3.46294 12.9999H9.53729C10.1249 12.9999 10.6909 12.7524 11.0902 12.3214C11.4894 11.8904 11.6927 11.3072 11.6475 10.7201ZM8.21541 6.99481L6.24629 8.96393C6.17192 9.0383 6.07444 9.0756 5.977 9.0756C5.87952 9.0756 5.78207 9.0383 5.7077 8.96393L4.78483 8.04106C4.63609 7.89232 4.63609 7.65144 4.78483 7.5027C4.93357 7.35396 5.1747 7.35396 5.32319 7.5027L5.97702 8.15628L7.67708 6.45623C7.82556 6.30774 8.06669 6.30774 8.21543 6.45623C8.36415 6.60496 8.36415 6.84607 8.21541 6.99481Z" fill="white"/>
<path d="M11.6475 10.7201L11.067 3.40483C11.031 2.93351 10.6322 2.56445 10.1596 2.56445H9.0129V4.26352C9.0129 4.47393 8.84258 4.64425 8.63217 4.64425C8.42201 4.64425 8.25144 4.47393 8.25144 4.26352V2.56445H4.74877V4.26352C4.74877 4.47393 4.5782 4.64425 4.36804 4.64425C4.15763 4.64425 3.98731 4.47393 3.98731 4.26352V2.56445H2.84057C2.36797 2.56445 1.96921 2.93351 1.93318 3.40382L1.35245 10.7211C1.30753 11.3072 1.51084 11.8905 1.91008 12.3214C2.30934 12.7524 2.87535 12.9999 3.46294 12.9999H9.53729C10.1249 12.9999 10.6909 12.7524 11.0902 12.3214C11.4894 11.8904 11.6927 11.3072 11.6475 10.7201ZM8.21541 6.99481L6.24629 8.96393C6.17192 9.0383 6.07444 9.0756 5.977 9.0756C5.87952 9.0756 5.78207 9.0383 5.7077 8.96393L4.78483 8.04106C4.63609 7.89232 4.63609 7.65144 4.78483 7.5027C4.93357 7.35396 5.1747 7.35396 5.32319 7.5027L5.97702 8.15628L7.67708 6.45623C7.82556 6.30774 8.06669 6.30774 8.21543 6.45623C8.36415 6.60496 8.36415 6.84607 8.21541 6.99481Z" fill="#222324" fill-opacity="0.7"/>
<path d="M6.50009 0C5.1145 0 3.9873 1.12745 3.9873 2.51304V2.56455H4.74877V2.51304C4.74877 1.54725 5.53433 0.761439 6.50011 0.761439C7.4659 0.761439 8.25146 1.54725 8.25146 2.51304V2.56455H9.0129V2.51304C9.01287 1.12745 7.88568 0 6.50009 0Z" fill="white"/>
<path d="M6.50009 0C5.1145 0 3.9873 1.12745 3.9873 2.51304V2.56455H4.74877V2.51304C4.74877 1.54725 5.53433 0.761439 6.50011 0.761439C7.4659 0.761439 8.25146 1.54725 8.25146 2.51304V2.56455H9.0129V2.51304C9.01287 1.12745 7.88568 0 6.50009 0Z" fill="#222324" fill-opacity="0.7"/>
</g>
<defs>
<clipPath id="clip0_18694_39348">
<rect width="13" height="13" fill="white"/>
</clipPath>
</defs>
</svg>
